# xmcd
#
# Track frame offsets:
#	150
#	12444
#	26619
#	39865
#	53693
#	66227
#	78527
#	91520
#	108517
#	122392
#	139102
#	163697
#	181584
#	195782
#	221098
#	235742
#	248314
#	261814
#	277198
#	299557
#	312925
#
# Disc length: 4436 seconds
#
# Revision: 0
# Processed by: cddbd v1.5.2PL0 Copyright (c) Steve Scherf et al.
# Submitted via: EasyCDDAExtractor 11.0.0.1
#
DISCID=16115215
DTITLE=Cristiano and Capela
DYEAR=2009
DGENRE=Sertanejo
TTITLE0=Pode Ir
TTITLE1=Ligação Fora de Área
TTITLE2=Medo de Amar
TTITLE3=Gato e Sapato
TTITLE4=Bora Beber
TTITLE5=Vê Se Para Com Essa Marra
TTITLE6=Aqui Não Xexênia
TTITLE7=Faz Algum Tempo
TTITLE8=Amor a Três
TTITLE9=Dez a Dez
TTITLE10=Pout-Pourri: 60 Dias Apaixonados, Sorriso Mudo, Telefone Mudo
TTITLE11=Paixão Preferida
TTITLE12=Amo Você
TTITLE13=Pout-Pourri: Do Outro Lado da Cidade, Minha Serenata
TTITLE14=Dois sem Vergonhas
TTITLE15=Te Querer
TTITLE16=O Pobre e o Rico
TTITLE17=Pareço um Mané
TTITLE18=Pout-Pourri: Mercedita, Morena Cheirosa
TTITLE19=Chora Me Liga
TTITLE20=Questão de Tempo
EXTD=
EXTT0=
EXTT1=
EXTT2=
EXTT3=
EXTT4=
EXTT5=
EXTT6=
EXTT7=
EXTT8=
EXTT9=
EXTT10=
EXTT11=
EXTT12=
EXTT13=
EXTT14=
EXTT15=
EXTT16=
EXTT17=
EXTT18=
EXTT19=
EXTT20=
PLAYORDER=
